<?xml version="1.0" encoding="UTF-8" standalone="no"?>
<!-- Created with Inkscape (http://www.inkscape.org/) -->

<svg
   width="14.075828mm"
   height="14.075829mm"
   viewBox="0 0 14.075828 14.075829"
   version="1.1"
   id="svg1"
   inkscape:export-filename="critical.svg"
   inkscape:export-xdpi="96"
   inkscape:export-ydpi="96"
   xmlns:inkscape="http://www.inkscape.org/namespaces/inkscape"
   xmlns:sodipodi="http://sodipodi.sourceforge.net/DTD/sodipodi-0.dtd"
   xmlns="http://www.w3.org/2000/svg"
   xmlns:svg="http://www.w3.org/2000/svg">
  <sodipodi:namedview
     id="namedview1"
     pagecolor="#ffffff"
     bordercolor="#000000"
     borderopacity="0.25"
     inkscape:showpageshadow="2"
     inkscape:pageopacity="0.0"
     inkscape:pagecheckerboard="0"
     inkscape:deskcolor="#d1d1d1"
     inkscape:document-units="mm" />
  <defs
     id="defs1" />
  <g
     inkscape:label="Layer 1"
     inkscape:groupmode="layer"
     id="layer1"
     transform="translate(-84.666666,-107.95001)">
    <circle
       cx="91.704582"
       r="7.0379167"
       fill="#cc3333"
       id="circle3"
       cy="114.98792"
       style="stroke-width:0.529167" />
    <path
       fill="#ffcccc"
       d="m 90.275834,115.67583 0.9525,0.29369 c -0.14605,0.51594 -0.388938,0.89958 -0.73025,1.14829 -0.339725,0.2503 -0.772584,0.37571 -1.291167,0.37571 -0.645583,0 -1.180042,-0.21431 -1.592792,-0.64558 -0.415925,-0.42916 -0.624416,-1.016 -0.624416,-1.75684 0,-0.78845 0.20902,-1.397 0.629708,-1.83091 0.418571,-0.43551 0.968375,-0.65088 1.651,-0.65088 0.592667,1e-5 1.0795,0.17092 1.449917,0.51277 0.221191,0.20214 0.38735,0.49212 0.497945,0.86783 l -0.973666,0.22595 c -0.05768,-0.245 -0.1778,-0.43868 -0.360363,-0.58208 -0.182562,-0.14182 -0.404283,-0.21273 -0.66675,-0.21273 -0.360891,1e-5 -0.656166,0.12595 -0.878416,0.3773 -0.224896,0.25135 -0.33708,0.65617 -0.33708,1.22238 -10e-7,0.59795 0.110596,1.02129 0.332317,1.27529 0.221192,0.25347 0.509058,0.38047 0.862542,0.38047 0.261408,0 0.485775,-0.0804 0.672041,-0.24183 0.188384,-0.1614 0.323321,-0.41487 0.405342,-0.762 z m 1.804458,1.73567 v -4.72546 h 2.069042 c 0.52017,10e-6 0.899583,0.0424 1.132416,0.12753 0.236009,0.0847 0.424392,0.23601 0.566209,0.45297 0.141816,0.21696 0.212725,0.46566 0.212725,0.74612 -6e-6,0.35454 -0.107421,0.64559 -0.322263,0.87842 -0.214842,0.23125 -0.534458,0.37677 -0.963083,0.43709 0.212725,0.12065 0.387879,0.25241 0.526521,0.39688 0.138641,0.14446 0.324908,0.40005 0.560916,0.76729 l 0.592667,0.92075 h -1.17475 l -0.709083,-1.02659 c -0.252413,-0.36777 -0.424921,-0.59795 -0.518055,-0.6932 -0.09313,-0.0958 -0.191558,-0.1614 -0.295275,-0.19685 -0.104245,-0.0355 -0.268816,-0.0534 -0.49477,-0.0534 h -0.198967 v 1.97379 z m 0.98425,-2.7305 H 93.7895 c 0.471488,0 0.767292,-0.0194 0.883709,-0.0582 0.117475,-0.0387 0.20902,-0.1053 0.275695,-0.20002 0.06668,-0.0947 0.09948,-0.21273 0.09948,-0.35454 -4e-6,-0.15928 -0.04371,-0.28734 -0.131234,-0.38524 -0.08731,-0.0979 -0.210608,-0.15981 -0.370416,-0.18521 -0.0799,-0.0107 -0.318559,-0.0161 -0.719667,-0.0161 h -0.767292 z"
       id="path9"
       style="stroke-width:0.529167" />
  </g>
</svg>
