<?xml version="1.0" encoding="UTF-8" standalone="no"?>
<!-- Created with Inkscape (http://www.inkscape.org/) -->

<svg
   width="14.075836mm"
   height="14.075837mm"
   viewBox="0 0 14.075836 14.075837"
   version="1.1"
   id="svg1"
   inkscape:export-filename="near-threatened.svg"
   inkscape:export-xdpi="96"
   inkscape:export-ydpi="96"
   xmlns:inkscape="http://www.inkscape.org/namespaces/inkscape"
   xmlns:sodipodi="http://sodipodi.sourceforge.net/DTD/sodipodi-0.dtd"
   xmlns="http://www.w3.org/2000/svg"
   xmlns:svg="http://www.w3.org/2000/svg">
  <sodipodi:namedview
     id="namedview1"
     pagecolor="#ffffff"
     bordercolor="#000000"
     borderopacity="0.25"
     inkscape:showpageshadow="2"
     inkscape:pageopacity="0.0"
     inkscape:pagecheckerboard="0"
     inkscape:deskcolor="#d1d1d1"
     inkscape:document-units="mm"
     inkscape:zoom="1.0242632"
     inkscape:cx="461.79536"
     inkscape:cy="476.92819"
     inkscape:window-width="1920"
     inkscape:window-height="1009"
     inkscape:window-x="1912"
     inkscape:window-y="-8"
     inkscape:window-maximized="1"
     inkscape:current-layer="layer1" />
  <defs
     id="defs1" />
  <g
     inkscape:label="Layer 1"
     inkscape:groupmode="layer"
     id="layer1"
     transform="translate(-164.04166,-119.59166)">
    <circle
       cx="171.07959"
       r="7.0379167"
       fill="#006666"
       id="circle7"
       cy="126.62958"
       style="stroke-width:0.529167" />
    <path
       fill="#ffffff"
       d="m 166.84625,129.06375 v -4.68842 h 0.98425 V 128.27 h 2.44475 v 0.79375 z m 7.24959,-1.73567 0.9525,0.29369 c -0.14605,0.51594 -0.38894,0.89958 -0.73025,1.14829 -0.33973,0.2503 -0.77259,0.37571 -1.29117,0.37571 -0.64558,0 -1.18004,-0.21431 -1.59279,-0.64559 -0.41593,-0.42915 -0.62442,-1.016 -0.62442,-1.75683 0,-0.78846 0.20902,-1.397 0.62971,-1.83092 0.41857,-0.4355 0.96838,-0.65087 1.651,-0.65087 0.59267,0 1.0795,0.17092 1.44992,0.51276 0.22119,0.20214 0.38735,0.49213 0.49794,0.86784 l -0.97366,0.22595 c -0.0577,-0.245 -0.1778,-0.43868 -0.36037,-0.58208 -0.18256,-0.14182 -0.40428,-0.21273 -0.66675,-0.21273 -0.36089,1e-5 -0.65616,0.12594 -0.87841,0.3773 -0.2249,0.25135 -0.33708,0.65616 -0.33708,1.22237 0,0.59796 0.11059,1.02129 0.33232,1.27529 0.22119,0.25347 0.50905,0.38047 0.86254,0.38047 0.26141,1e-5 0.48577,-0.0804 0.67204,-0.24182 0.18838,-0.1614 0.32332,-0.41487 0.40534,-0.762 z"
       id="path13"
       style="stroke-width:0.529167" />
  </g>
</svg>
